HIERARCHY
ROOT Hips
{
	OFFSET 0.0000 0.0000 0.0000
	CHANNELS 6 Xposition Yposition Zposition Zrotation Xrotation Yrotation
	JOINT Ab
	{
		OFFSET -0.0000 8.1305 -0.0000
		CHANNELS 3 Zrotation Xrotation Yrotation
		JOINT Chest
		{
			OFFSET -0.0000 26.2902 -0.0000
			CHANNELS 3 Zrotation Xrotation Yrotation
			JOINT Neck
			{
				OFFSET -0.0000 26.2902 0.0000
				CHANNELS 3 Zrotation Xrotation Yrotation
				JOINT Head
				{
					OFFSET -0.0000 10.8167 0.0000
					CHANNELS 3 Zrotation Xrotation Yrotation
					End Site
					{
						OFFSET -0.0000 16.7167 0.0000
					}
				}
			}
			JOINT LeftCollar
			{
				OFFSET -0.0000 26.2902 0.0000
				CHANNELS 3 Zrotation Xrotation Yrotation
				JOINT LeftShoulder
				{
					OFFSET 19.6667 -0.0000 0.0000
					CHANNELS 3 Zrotation Xrotation Yrotation
					JOINT LeftElbow
					{
						OFFSET 27.2190 0.0000 0.0000
						CHANNELS 3 Zrotation Xrotation Yrotation
						JOINT LeftWrist
						{
							OFFSET 30.7431 0.0000 0.0000
							CHANNELS 3 Zrotation Xrotation Yrotation
							End Site
							{
								OFFSET 0.0000 -14.7500 0.0000
							}
						}
					}
				}
			}
			JOINT RightCollar
			{
				OFFSET -0.0000 26.2902 0.0000
				CHANNELS 3 Zrotation Xrotation Yrotation
				JOINT RightShoulder
				{
					OFFSET -19.6667 0.0000 0.0000
					CHANNELS 3 Zrotation Xrotation Yrotation
					JOINT RightElbow
					{
						OFFSET -27.2190 0.0000 0.0000
						CHANNELS 3 Zrotation Xrotation Yrotation
						JOINT RightWrist
						{
							OFFSET -30.7431 0.0000 0.0000
							CHANNELS 3 Zrotation Xrotation Yrotation
							End Site
							{
								OFFSET -0.0000 -14.7500 0.0000
							}
						}
					}
				}
			}
		}
	}
	JOINT LeftHip
	{
		OFFSET 11.8000 0.0000 0.0000
		CHANNELS 3 Zrotation Xrotation Yrotation
		JOINT LeftKnee
		{
			OFFSET -0.0000 -39.7832 0.0000
			CHANNELS 3 Zrotation Xrotation Yrotation
			JOINT LeftAnkle
			{
				OFFSET -0.0000 -41.7317 0.0000
				CHANNELS 3 Zrotation Xrotation Yrotation
				End Site
				{
					OFFSET -0.0000 -4.9167 16.7167
				}
			}
		}
	}
	JOINT RightHip
	{
		OFFSET -11.8000 0.0000 0.0000
		CHANNELS 3 Zrotation Xrotation Yrotation
		JOINT RightKnee
		{
			OFFSET -0.0000 -39.7832 0.0000
			CHANNELS 3 Zrotation Xrotation Yrotation
			JOINT RightAnkle
			{
				OFFSET -0.0000 -41.7317 0.0000
				CHANNELS 3 Zrotation Xrotation Yrotation
				End Site
				{
					OFFSET -0.0000 -4.9167 16.7167
				}
			}
		}
	}
}
MOTION
Frames: 22
Frame Time: 0.010000
-16.1498 97.1079 181.0472 358.9007 358.8181 179.3915 358.1011 347.7866 0.2714 2.8150 11.8094 0.1910 358.5356 1.3502 0.1371 357.7452 8.0733 0.2806 340.2091 357.4645 14.4595 321.0185 60.6021 335.7177 8.8609 357.4131 327.5292 84.9611 356.6788 347.0630 27.1519 356.0117 343.5141 45.7638 48.8174 4.5337 338.5798 354.2277 29.8510 270.7394 355.9940 6.0064 357.3269 3.2165 359.4398 357.4441 8.2523 1.3953 354.9778 351.0659 17.9800 358.7217 6.5114 9.5317 6.4062 6.4044 7.4283 350.8346 343.5414 317.9076 
-16.1856 97.1031 181.0342 358.9059 358.8064 179.3868 358.1080 347.7783 0.2737 2.8107 11.8316 0.1879 358.4941 1.3033 0.1453 357.7705 8.1105 0.2820 340.2019 357.4705 14.4507 320.8975 60.5384 335.8531 8.7970 357.4229 327.4978 85.0775 356.6816 347.0596 27.1569 355.9819 343.5169 45.7461 48.8090 4.5408 338.5600 354.2095 29.8485 270.7076 355.9842 5.9938 357.3076 3.2059 359.4289 357.4401 8.2704 1.3779 355.0582 351.0504 18.0002 358.6992 6.5050 9.5688 6.4153 6.4112 7.4291 350.8282 343.5452 317.8771 
-16.2209 97.0985 181.0261 358.9079 358.7871 179.3827 358.1080 347.7711 0.2717 2.8027 11.8404 0.1828 358.4481 1.2946 0.1443 357.8283 8.1046 0.2704 340.2009 357.4592 14.4589 320.8908 60.5318 335.8530 8.8069 357.4204 327.5137 85.0015 356.6972 347.0005 27.1928 355.9950 343.5346 45.7215 48.7211 4.4936 338.6464 354.2203 29.9147 270.6697 356.0060 6.0491 357.2882 3.1750 359.4307 357.4366 8.3064 1.3620 355.0816 351.0345 18.0135 358.6781 6.4830 9.5598 6.4151 6.4284 7.4525 350.8634 343.5125 317.8723 
-16.2560 97.0931 181.0159 358.9177 358.7766 179.3841 358.1216 347.7838 0.2603 2.7800 11.8246 0.1757 358.3916 1.3191 0.1485 357.9230 8.0716 0.2656 340.1992 357.4629 14.4643 320.8849 60.5124 335.8836 8.7749 357.4354 327.4626 85.4728 356.7895 347.2363 27.2198 355.9927 343.5395 45.7091 48.7235 4.4719 338.6359 354.2211 29.9200 270.6860 356.0144 6.0188 357.2796 3.1533 359.4150 357.4239 8.3409 1.3509 355.0917 351.0025 18.0348 358.6674 6.4716 9.5522 6.4121 6.4443 7.4405 350.8769 343.4942 317.8859 
-16.2918 97.0881 181.0035 358.9269 358.7639 179.3757 358.1232 347.7832 0.2584 2.7751 11.8290 0.1801 358.3559 1.3240 0.1438 357.9615 8.0561 0.2644 340.1875 357.4660 14.4789 320.9111 60.4927 335.8715 8.7406 357.4455 327.4362 85.8686 356.8460 347.4306 27.2230 355.9937 343.5440 45.7193 48.7317 4.4568 338.6332 354.2257 29.9122 270.7142 355.9855 6.0636 357.2683 3.1342 359.3994 357.4106 8.3721 1.3447 355.1196 350.9739 18.0599 358.6531 6.4573 9.5701 6.4135 6.4609 7.4262 350.9012 343.4694 317.8887 
-16.3264 97.0828 180.9890 358.9424 358.7553 179.3636 358.1280 347.7796 0.2625 2.7770 11.8456 0.1804 358.3087 1.3258 0.1335 358.0020 8.0316 0.2565 340.1717 357.4722 14.4984 320.9721 60.4760 335.8052 8.7087 357.4434 327.4653 85.9182 356.8283 347.4361 27.2327 355.9992 343.5541 45.7323 48.7201 4.4259 338.6440 354.2291 29.9190 270.7477 355.9849 6.1053 357.2653 3.1221 359.3905 357.3944 8.4027 1.3317 355.1255 350.9482 18.0947 358.6471 6.4483 9.5676 6.4069 6.4811 7.4543 350.9082 343.4458 317.8804 
-16.3648 97.0781 180.9761 358.9516 358.7461 179.3611 358.1283 347.7836 0.2654 2.7776 11.8510 0.1715 358.2665 1.3349 0.1304 358.0407 8.0006 0.2487 340.1703 357.4489 14.5056 320.9639 60.4911 335.8103 8.7527 357.4227 327.4882 85.8766 356.8113 347.4517 27.2429 356.0125 343.5482 45.7197 48.7412 4.4346 338.6225 354.2354 29.8955 270.7794 355.9463 6.0710 357.2527 3.0990 359.3620 357.3803 8.4440 1.3384 355.0265 350.9003 18.1177 358.6329 6.4389 9.5702 6.4042 6.4970 7.4479 350.9217 343.4283 317.8863 
-16.4069 97.0722 180.9619 358.9603 358.7404 179.3560 358.1249 347.7907 0.2603 2.7753 11.8551 0.1793 358.2520 1.3387 0.1206 358.0642 7.9848 0.2320 340.1563 357.4755 14.4934 320.9813 60.4679 335.8299 8.6601 357.4526 327.4737 85.8645 356.8070 347.4019 27.2422 355.9890 343.5577 45.7784 48.7025 4.3752 338.5916 354.2171 29.8877 270.7805 355.9130 6.1573 357.2374 3.0824 359.3270 357.3615 8.4901 1.3387 355.1926 350.8846 18.1607 358.6115 6.4263 9.5535 6.4109 6.5295 7.4688 350.9386 343.4003 317.8772 
-16.4490 97.0659 180.9453 358.9647 358.7298 179.3498 358.1202 347.7852 0.2598 2.7705 11.8762 0.1748 358.2215 1.2756 0.1388 358.0808 8.0432 0.2544 340.1549 357.4475 14.5037 321.0019 60.5052 335.8060 8.7556 357.4197 327.4390 86.3094 356.9857 347.9154 27.2496 356.0134 343.5758 45.8146 48.6969 4.3212 338.6166 354.2176 29.9046 270.8651 355.8958 6.1067 357.2166 3.0597 359.3294 357.3576 8.5340 1.3049 355.2169 350.8509 18.1867 358.5878 6.4190 9.5925 6.4149 6.5368 7.4223 350.9762 343.3717 317.8934 
-16.4926 97.0610 180.9317 358.9717 358.7154 179.3364 358.1198 347.7828 0.2600 2.7676 11.8995 0.1817 358.1962 1.2474 0.1317 358.0934 8.0356 0.2480 340.1486 357.4471 14.4795 320.9133 60.4431 335.9242 8.7356 357.4443 327.4255 86.2011 356.8658 347.7038 27.2394 356.0001 343.5747 45.8582 48.7187 4.3070 338.5111 354.1871 29.9073 271.2486 355.7190 5.5862 357.1923 3.0300 359.3399 357.3546 8.5850 1.2975 355.2647 350.8191 18.1921 358.5671 6.3997 9.6207 6.4133 6.5600 7.4030 350.9930 343.3490 317.8972 
-16.5405 97.0562 180.9188 358.9770 358.6961 179.3286 358.1325 347.7772 0.2563 2.7397 11.9192 0.1769 358.1389 1.2306 0.1299 358.1561 8.0185 0.2414 340.1513 357.4560 14.4795 320.9038 60.4229 335.9432 8.7431 357.4530 327.4220 86.1390 356.8644 347.6582 27.2511 355.9908 343.5888 45.8871 48.7160 4.2628 338.4972 354.1709 29.9168 271.4392 355.8028 5.7415 357.1618 2.9932 359.3307 357.3565 8.6334 1.3062 355.2059 350.7770 18.2026 358.5385 6.3679 9.6096 6.4175 6.6006 7.4218 351.0142 343.3189 317.8949 
-16.5867 97.0495 180.9088 358.9886 358.6744 179.3273 358.1366 347.7733 0.2510 2.7347 11.9387 0.1664 358.0618 1.2340 0.1317 358.2336 7.9674 0.2334 340.1440 357.4578 14.4905 320.9275 60.4072 335.9240 8.7346 357.4534 327.4308 86.0766 356.8235 347.5697 27.2637 356.0003 343.6103 45.8967 48.6756 4.2304 338.5165 354.1762 29.9361 271.5081 355.8364 5.8682 357.1444 2.9453 359.3055 357.3476 8.6989 1.2988 355.2325 350.7344 18.2273 358.5208 6.3290 9.5830 6.4181 6.6494 7.4455 351.0318 343.2876 317.8974 
-16.6348 97.0446 180.8920 358.9995 358.6611 179.3147 358.1364 347.7695 0.2522 2.7366 11.9657 0.1675 357.9933 1.2284 0.1308 358.3042 7.9305 0.2235 340.1316 357.4511 14.5138 320.9993 60.4046 335.8497 8.7439 357.4541 327.4541 85.9643 356.7712 347.4906 27.2634 356.0097 343.6207 45.9119 48.6752 4.2217 338.5548 354.2043 29.8988 271.1635 355.8769 6.2570 357.1260 2.9166 359.2682 357.3332 8.7490 1.2962 355.3280 350.6968 18.2836 358.4998 6.3025 9.5612 6.4183 6.6941 7.4672 351.0441 343.2552 317.9027 
-16.6816 97.0385 180.8767 359.0202 358.6451 179.3025 358.1444 347.7692 0.2511 2.7287 11.9851 0.1683 357.9641 1.2086 0.1144 358.3341 7.9108 0.2104 340.1305 357.4480 14.5425 321.1215 60.4573 335.7233 8.7277 357.4405 327.4840 86.0036 356.7638 347.5409 27.2608 355.9886 343.6106 45.9231 48.7561 4.2361 338.5320 354.2116 29.8464 270.8575 355.8487 6.1944 357.1204 2.8797 359.2470 357.3168 8.8097 1.2723 355.3592 350.6582 18.3256 358.4895 6.2730 9.5416 6.4147 6.7423 7.4991 351.0701 343.2184 317.9030 
-16.7288 97.0329 180.8585 359.0394 358.6365 179.2882 358.1394 347.7718 0.2563 2.7461 12.0108 0.1691 357.9279 1.1880 0.1067 358.3439 7.8919 0.2023 340.1018 357.4387 14.5717 321.2464 60.4621 335.6209 8.7077 357.4552 327.4936 85.9522 356.7514 347.5360 27.2688 356.0107 343.6147 45.8924 48.7278 4.2356 338.6125 354.2311 29.8687 270.7699 355.8719 6.2182 357.1099 2.8557 359.2463 357.3025 8.8671 1.2866 355.2914 350.6147 18.3166 358.4785 6.2551 9.5211 6.4111 6.7833 7.5274 351.0876 343.1801 317.9052 
-16.7805 97.0269 180.8403 359.0542 358.6262 179.2749 358.1474 347.7825 0.2544 2.7260 12.0154 0.1752 357.9474 1.1721 0.1147 358.3221 7.8839 0.2121 340.1154 357.4494 14.5426 321.1369 60.4342 335.7441 8.7278 357.4518 327.4737 85.8403 356.7475 347.4963 27.3030 356.0086 343.6303 45.8672 48.6679 4.2165 338.6395 354.2131 29.9116 270.8536 355.8420 6.1536 357.0838 2.8177 359.2496 357.3087 8.9501 1.2496 355.2993 350.5505 18.3848 358.4562 6.2246 9.5000 6.4191 6.8459 7.5589 351.1024 343.1405 317.8945 
-16.8334 97.0204 180.8221 359.0699 358.6151 179.2545 358.1520 347.7970 0.2609 2.7247 12.0174 0.1802 358.1120 1.1934 0.1746 358.1078 7.7870 0.2858 340.1168 357.4394 14.5438 321.0877 60.4345 335.7946 8.7536 357.4529 327.4870 85.7310 356.7201 347.4546 27.3052 356.0157 343.6336 45.8680 48.6811 4.2153 338.5815 354.2208 29.9290 271.1932 355.7130 5.5265 357.0649 2.7925 359.2313 357.2991 9.0004 1.2532 355.3704 350.5208 18.3900 358.4335 6.1948 9.4927 6.4231 6.8983 7.5820 351.1262 343.0986 317.8899 
-16.8839 97.0138 180.8004 359.0917 358.6043 179.2370 358.1529 347.8019 0.2629 2.7271 12.0395 0.1836 358.0587 1.2036 0.1142 358.0442 7.8068 0.2280 340.1038 357.4291 14.5353 321.0761 60.3984 335.8365 8.7284 357.4568 327.4946 85.5007 356.6939 347.3020 27.3066 356.0058 343.6204 45.8651 48.7412 4.2280 338.5464 354.2049 29.9090 271.1480 355.7542 5.5116 357.0536 2.7746 359.2181 357.2868 9.0454 1.2512 355.4114 350.4889 18.4239 358.4227 6.1713 9.4895 6.4227 6.9489 7.5889 351.1497 343.0627 317.9013 
-16.9380 97.0087 180.7743 359.1076 358.5989 179.2140 358.1468 347.8033 0.2731 2.7305 12.0710 0.1912 357.9946 1.2042 0.1146 358.0876 7.7881 0.2216 340.0951 357.4532 14.4379 320.7704 60.2264 336.2230 8.6808 357.4648 327.3815 85.5351 356.7320 347.2182 27.3034 356.0068 343.6217 45.8892 48.7606 4.2070 338.5444 354.1975 29.9053 271.1503 355.7636 5.6038 357.0319 2.7991 359.0060 357.2436 9.0114 1.4803 355.4533 350.4849 18.4235 358.3996 6.1516 9.4672 6.4266 7.0078 7.6394 351.1586 343.0228 317.8888 
-16.9948 97.0030 180.7531 359.1209 358.5763 179.1956 358.1344 347.7958 0.2810 2.7419 12.0942 0.1973 358.0037 1.1951 0.1141 358.0594 7.7769 0.2246 340.1034 357.4680 14.3005 320.2859 60.0187 336.7799 8.6983 357.4477 327.2465 85.4894 356.7457 347.0219 27.2965 356.0125 343.6131 45.9016 48.7703 4.2032 338.5384 354.2022 29.8924 271.2044 355.7571 5.6272 357.0053 2.7879 358.8522 357.2154 9.0105 1.6330 355.4878 350.4669 18.4320 358.3742 6.0645 9.1381 6.3963 7.1905 7.9665 351.1723 342.9381 317.8857 
-17.0552 96.9975 180.7310 359.1335 358.5605 179.1765 358.1370 347.8039 0.2822 2.7268 12.1029 0.2052 358.0243 1.1766 0.1043 358.0235 7.7914 0.2327 340.1050 357.4865 14.3023 320.2849 60.0046 336.7657 8.6473 357.4654 327.2911 85.8059 356.6736 347.0797 27.2977 355.9944 343.6120 45.9348 48.8031 4.1744 338.4910 354.1943 29.8768 271.1896 355.7559 5.5622 356.9743 2.7686 358.8444 357.2116 9.0505 1.6263 355.5435 350.4404 18.4660 358.3429 6.0067 8.9828 6.3863 7.3087 8.0953 351.2005 342.8656 317.9143 
-17.1212 96.9913 180.7086 359.1408 358.5406 179.1500 358.1442 347.8104 0.2925 2.7039 12.1014 0.2069 358.0251 1.1889 0.1190 358.0080 7.7727 0.2441 340.0910 357.4565 14.3619 320.4556 60.0673 336.5836 8.6835 357.4432 327.3524 85.8589 356.6755 347.2057 27.5168 355.9632 343.8930 45.9713 47.6045 3.6205 339.0567 354.3669 30.4382 271.1984 355.7766 6.4241 356.9321 2.7573 358.8074 357.2062 9.0637 1.6803 355.5520 350.4057 18.4593 358.2969 5.9588 8.9954 6.4118 7.3808 8.1055 351.1974 342.8331 317.8973 
